<?xml version="1.0" standalone="no"?>
<!DOCTYPE svg PUBLIC "-//W3C//DTD SVG 20010904//EN"
 "http://www.w3.org/TR/2001/REC-SVG-20010904/DTD/svg10.dtd">
<svg version="1.0" xmlns="http://www.w3.org/2000/svg"
 width="1024.000000pt" height="1024.000000pt" viewBox="0 0 1024.000000 1024.000000"
 preserveAspectRatio="xMidYMid meet">
<metadata>
Created by potrace 1.14, written by Peter Selinger 2001-2017
</metadata>
<g transform="translate(0.000000,1024.000000) scale(0.100000,-0.100000)"
fill="#000000" stroke="none">
<path d="M1649 10236 c-2 -2 -31 -7 -64 -11 -122 -13 -344 -70 -457 -116 -74
-31 -245 -123 -317 -171 -157 -104 -284 -220 -419 -382 -55 -65 -157 -229
-206 -331 -93 -189 -147 -373 -173 -580 -10 -79 -10 -6959 0 -7049 4 -37 14
-100 23 -140 8 -39 17 -82 20 -96 19 -93 133 -372 186 -455 73 -114 105 -162
115 -175 234 -303 469 -476 858 -630 77 -31 278 -77 385 -88 91 -10 6969 -9
7055 1 73 8 353 73 370 86 6 4 39 18 75 31 36 12 108 45 160 72 452 236 787
651 916 1133 66 249 62 -1 62 3795 0 3775 4 3519 -58 3757 -112 432 -370 794
-744 1044 -218 147 -483 253 -711 285 -27 3 -59 9 -70 13 -21 6 -6999 14
-7006 7z"/>
</g>
</svg>
