<svg width="868" height="598" viewBox="0 0 868 598" fill="none" xmlns="http://www.w3.org/2000/svg">
<g filter="url(#filter0_d_215_394)">
<path fill-rule="evenodd" clip-rule="evenodd" d="M85.8063 269.998C43.8328 269.906 9.70198 303.857 9.57303 345.83L9.0863 504.264C8.95736 546.237 42.8792 580.338 84.8527 580.431L781.123 581.966C823.097 582.058 857.228 548.107 857.356 506.134L857.843 347.7C857.972 305.727 824.05 271.626 782.077 271.533L85.8063 269.998ZM97.8945 326.5L194.195 538H237.995L334.595 326.5H277.895L217.295 467.2L156.695 326.5H97.8945ZM346.651 326.5V538H401.851V465.1H448.351C472.351 465.1 490.851 459 503.851 446.8C517.051 434.4 523.651 417.4 523.651 395.8C523.651 374.2 517.051 357.3 503.851 345.1C490.851 332.7 472.351 326.5 448.351 326.5H346.651ZM438.751 422.8H401.851V368.8H438.751C460.351 368.8 471.151 377.8 471.151 395.8C471.151 413.8 460.351 422.8 438.751 422.8ZM549.385 326.5V538H600.685V416.8L697.885 538H738.085V326.5H687.085V447.7L589.885 326.5H549.385Z" fill="white"/>
</g>
<path d="M89.04 216.332C72.504 216.332 58.3 213.152 46.428 206.792C34.556 200.432 25.44 191.457 19.08 179.868C12.8613 168.279 9.752 154.711 9.752 139.164C9.752 123.617 12.8613 110.12 19.08 98.672C25.44 87.0827 34.556 78.108 46.428 71.748C58.3 65.388 72.504 62.208 89.04 62.208C98.9333 62.208 108.473 63.7627 117.66 66.872C126.847 69.84 134.267 73.7973 139.92 78.744L128.26 109.484C122.041 104.961 115.823 101.64 109.604 99.52C103.385 97.2587 97.0253 96.128 90.524 96.128C77.38 96.128 67.4867 99.8733 60.844 107.364C54.2013 114.713 50.88 125.313 50.88 139.164C50.88 153.156 54.2013 163.897 60.844 171.388C67.4867 178.737 77.38 182.412 90.524 182.412C97.0253 182.412 103.385 181.352 109.604 179.232C115.823 176.971 122.041 173.579 128.26 169.056L139.92 199.796C134.267 204.743 126.847 208.771 117.66 211.88C108.473 214.848 98.9333 216.332 89.04 216.332ZM159.111 214V64.54H198.119V214H159.111ZM300.626 216.332C284.09 216.332 269.886 213.152 258.014 206.792C246.142 200.432 237.026 191.457 230.666 179.868C224.447 168.279 221.338 154.711 221.338 139.164C221.338 123.617 224.447 110.12 230.666 98.672C237.026 87.0827 246.142 78.108 258.014 71.748C269.886 65.388 284.09 62.208 300.626 62.208C310.519 62.208 320.059 63.7627 329.246 66.872C338.433 69.84 345.853 73.7973 351.506 78.744L339.846 109.484C333.627 104.961 327.409 101.64 321.19 99.52C314.971 97.2587 308.611 96.128 302.11 96.128C288.966 96.128 279.073 99.8733 272.43 107.364C265.787 114.713 262.466 125.313 262.466 139.164C262.466 153.156 265.787 163.897 272.43 171.388C279.073 178.737 288.966 182.412 302.11 182.412C308.611 182.412 314.971 181.352 321.19 179.232C327.409 176.971 333.627 173.579 339.846 169.056L351.506 199.796C345.853 204.743 338.433 208.771 329.246 211.88C320.059 214.848 310.519 216.332 300.626 216.332ZM350.193 214L420.153 64.54H450.893L520.853 214H481.845L468.913 183.684H402.133L389.201 214H350.193ZM435.205 105.244L414.853 153.792H455.981L435.629 105.244H435.205ZM529.904 214V64.54H591.808C617.672 64.54 637.741 71.0413 652.016 84.044C666.291 97.0467 673.428 115.42 673.428 139.164C673.428 162.908 666.291 181.352 652.016 194.496C637.741 207.499 617.672 214 591.808 214H529.904ZM568.912 182.412H589.264C604.104 182.412 615.057 178.879 622.124 171.812C629.332 164.604 632.936 153.721 632.936 139.164C632.936 124.607 629.332 113.795 622.124 106.728C614.916 99.6613 603.963 96.128 589.264 96.128H568.912V182.412ZM674.818 214L744.778 64.54H775.518L845.478 214H806.47L793.538 183.684H726.758L713.826 214H674.818ZM759.83 105.244L739.478 153.792H780.606L760.254 105.244H759.83Z" fill="white"/>
<path d="M830.491 99.726C827.103 99.726 823.935 99.11 820.987 97.878C818.083 96.646 815.531 94.952 813.331 92.796C811.175 90.596 809.481 88.044 808.249 85.14C807.061 82.236 806.467 79.09 806.467 75.702C806.467 72.314 807.061 69.168 808.249 66.264C809.481 63.36 811.175 60.83 813.331 58.674C815.531 56.474 818.083 54.78 820.987 53.592C823.935 52.36 827.103 51.744 830.491 51.744C833.879 51.744 837.025 52.36 839.929 53.592C842.833 54.78 845.363 56.474 847.519 58.674C849.719 60.83 851.413 63.36 852.601 66.264C853.833 69.168 854.449 72.314 854.449 75.702C854.449 79.09 853.833 82.236 852.601 85.14C851.413 88.044 849.719 90.596 847.519 92.796C845.363 94.952 842.833 96.646 839.929 97.878C837.025 99.11 833.879 99.726 830.491 99.726ZM830.491 95.832C834.319 95.832 837.729 94.952 840.721 93.192C843.713 91.432 846.067 89.034 847.783 85.998C849.499 82.962 850.357 79.53 850.357 75.702C850.357 71.874 849.499 68.464 847.783 65.472C846.067 62.436 843.713 60.038 840.721 58.278C837.729 56.518 834.319 55.638 830.491 55.638C826.663 55.638 823.253 56.518 820.261 58.278C817.269 60.038 814.893 62.436 813.133 65.472C811.417 68.464 810.559 71.874 810.559 75.702C810.559 79.53 811.417 82.962 813.133 85.998C814.893 89.034 817.269 91.432 820.261 93.192C823.253 94.952 826.663 95.832 830.491 95.832ZM819.799 89.628V61.71H832.339C835.507 61.71 837.949 62.502 839.665 64.086C841.381 65.626 842.239 67.606 842.239 70.026C842.239 71.962 841.755 73.568 840.787 74.844C839.819 76.076 838.455 76.934 836.695 77.418C837.575 77.682 838.301 78.21 838.873 79.002C839.489 79.794 839.995 80.982 840.391 82.566L842.503 89.628H834.913L832.669 81.576C832.405 80.696 832.009 80.102 831.481 79.794C830.953 79.486 830.293 79.332 829.501 79.332H827.323V89.628H819.799ZM827.257 73.854H831.283C833.879 73.854 835.177 72.732 835.177 70.488C835.177 68.244 833.879 67.122 831.283 67.122H827.257V73.854Z" fill="white"/>
<defs>
<filter id="filter0_d_215_394" x="5.08594" y="269.998" width="856.758" height="327.968" filterUnits="userSpaceOnUse" color-interpolation-filters="sRGB">
<feFlood flood-opacity="0" result="BackgroundImageFix"/>
<feColorMatrix in="SourceAlpha" type="matrix" values="0 0 0 0 0 0 0 0 0 0 0 0 0 0 0 0 0 0 127 0" result="hardAlpha"/>
<feOffset dy="12"/>
<feGaussianBlur stdDeviation="2"/>
<feComposite in2="hardAlpha" operator="out"/>
<feColorMatrix type="matrix" values="0 0 0 0 0 0 0 0 0 0 0 0 0 0 0 0 0 0 0.43 0"/>
<feBlend mode="normal" in2="BackgroundImageFix" result="effect1_dropShadow_215_394"/>
<feBlend mode="normal" in="SourceGraphic" in2="effect1_dropShadow_215_394" result="shape"/>
</filter>
</defs>
</svg>
