<svg width="1475" height="261" viewBox="0 0 1475 261" fill="none" xmlns="http://www.w3.org/2000/svg">
<path fill-rule="evenodd" clip-rule="evenodd" d="M996.467 32.0002C969.957 31.9312 948.411 53.3656 948.342 79.8751L948 211.272C947.931 237.781 969.366 259.328 995.875 259.397L1426.21 260.516C1452.72 260.585 1474.26 239.151 1474.33 212.641L1474.68 81.2447C1474.74 54.7352 1453.31 33.189 1426.8 33.12L996.467 32.0002ZM988.27 78.93L1053.11 221.34H1082.6L1147.65 78.93H1109.47L1068.67 173.668L1027.86 78.93H988.27ZM1155.77 78.93V221.34H1192.93V172.254H1224.24C1240.4 172.254 1252.86 168.147 1261.61 159.932C1270.5 151.583 1274.95 140.136 1274.95 125.592C1274.95 111.048 1270.5 99.6686 1261.61 91.454C1252.86 83.1046 1240.4 78.93 1224.24 78.93H1155.77ZM1217.78 143.772H1192.93V107.412H1217.78C1232.32 107.412 1239.6 113.472 1239.6 125.592C1239.6 137.712 1232.32 143.772 1217.78 143.772ZM1292.27 78.93V221.34H1326.82V139.732L1392.26 221.34H1419.33V78.93H1384.99V160.538L1319.54 78.93H1292.27Z" fill="black"/>
<path d="M89.04 216.332C72.504 216.332 58.3 213.152 46.428 206.792C34.556 200.432 25.44 191.457 19.08 179.868C12.8613 168.279 9.752 154.711 9.752 139.164C9.752 123.617 12.8613 110.12 19.08 98.672C25.44 87.0827 34.556 78.108 46.428 71.748C58.3 65.388 72.504 62.208 89.04 62.208C98.9333 62.208 108.473 63.7627 117.66 66.872C126.847 69.84 134.267 73.7973 139.92 78.744L128.26 109.484C122.041 104.961 115.823 101.64 109.604 99.52C103.385 97.2587 97.0253 96.128 90.524 96.128C77.38 96.128 67.4867 99.8733 60.844 107.364C54.2013 114.713 50.88 125.313 50.88 139.164C50.88 153.156 54.2013 163.897 60.844 171.388C67.4867 178.737 77.38 182.412 90.524 182.412C97.0253 182.412 103.385 181.352 109.604 179.232C115.823 176.971 122.041 173.579 128.26 169.056L139.92 199.796C134.267 204.743 126.847 208.771 117.66 211.88C108.473 214.848 98.9333 216.332 89.04 216.332ZM159.111 214V64.54H198.119V214H159.111ZM300.626 216.332C284.09 216.332 269.886 213.152 258.014 206.792C246.142 200.432 237.026 191.457 230.666 179.868C224.447 168.279 221.338 154.711 221.338 139.164C221.338 123.617 224.447 110.12 230.666 98.672C237.026 87.0827 246.142 78.108 258.014 71.748C269.886 65.388 284.09 62.208 300.626 62.208C310.519 62.208 320.059 63.7627 329.246 66.872C338.433 69.84 345.853 73.7973 351.506 78.744L339.846 109.484C333.627 104.961 327.409 101.64 321.19 99.52C314.971 97.2587 308.611 96.128 302.11 96.128C288.966 96.128 279.073 99.8733 272.43 107.364C265.787 114.713 262.466 125.313 262.466 139.164C262.466 153.156 265.787 163.897 272.43 171.388C279.073 178.737 288.966 182.412 302.11 182.412C308.611 182.412 314.971 181.352 321.19 179.232C327.409 176.971 333.627 173.579 339.846 169.056L351.506 199.796C345.853 204.743 338.433 208.771 329.246 211.88C320.059 214.848 310.519 216.332 300.626 216.332ZM350.193 214L420.153 64.54H450.893L520.853 214H481.845L468.913 183.684H402.133L389.201 214H350.193ZM435.205 105.244L414.853 153.792H455.981L435.629 105.244H435.205ZM529.904 214V64.54H591.808C617.672 64.54 637.741 71.0413 652.016 84.044C666.291 97.0467 673.428 115.42 673.428 139.164C673.428 162.908 666.291 181.352 652.016 194.496C637.741 207.499 617.672 214 591.808 214H529.904ZM568.912 182.412H589.264C604.104 182.412 615.057 178.879 622.124 171.812C629.332 164.604 632.936 153.721 632.936 139.164C632.936 124.607 629.332 113.795 622.124 106.728C614.916 99.6613 603.963 96.128 589.264 96.128H568.912V182.412ZM674.818 214L744.778 64.54H775.518L845.478 214H806.47L793.538 183.684H726.758L713.826 214H674.818ZM759.83 105.244L739.478 153.792H780.606L760.254 105.244H759.83Z" fill="#100F0D"/>
<path d="M824.928 99.726C821.54 99.726 818.372 99.11 815.424 97.878C812.52 96.646 809.968 94.952 807.768 92.796C805.612 90.596 803.918 88.044 802.686 85.14C801.498 82.236 800.904 79.09 800.904 75.702C800.904 72.314 801.498 69.168 802.686 66.264C803.918 63.36 805.612 60.83 807.768 58.674C809.968 56.474 812.52 54.78 815.424 53.592C818.372 52.36 821.54 51.744 824.928 51.744C828.316 51.744 831.462 52.36 834.366 53.592C837.27 54.78 839.8 56.474 841.956 58.674C844.156 60.83 845.85 63.36 847.038 66.264C848.27 69.168 848.886 72.314 848.886 75.702C848.886 79.09 848.27 82.236 847.038 85.14C845.85 88.044 844.156 90.596 841.956 92.796C839.8 94.952 837.27 96.646 834.366 97.878C831.462 99.11 828.316 99.726 824.928 99.726ZM824.928 95.832C828.756 95.832 832.166 94.952 835.158 93.192C838.15 91.432 840.504 89.034 842.22 85.998C843.936 82.962 844.794 79.53 844.794 75.702C844.794 71.874 843.936 68.464 842.22 65.472C840.504 62.436 838.15 60.038 835.158 58.278C832.166 56.518 828.756 55.638 824.928 55.638C821.1 55.638 817.69 56.518 814.698 58.278C811.706 60.038 809.33 62.436 807.57 65.472C805.854 68.464 804.996 71.874 804.996 75.702C804.996 79.53 805.854 82.962 807.57 85.998C809.33 89.034 811.706 91.432 814.698 93.192C817.69 94.952 821.1 95.832 824.928 95.832ZM814.236 89.628V61.71H826.776C829.944 61.71 832.386 62.502 834.102 64.086C835.818 65.626 836.676 67.606 836.676 70.026C836.676 71.962 836.192 73.568 835.224 74.844C834.256 76.076 832.892 76.934 831.132 77.418C832.012 77.682 832.738 78.21 833.31 79.002C833.926 79.794 834.432 80.982 834.828 82.566L836.94 89.628H829.35L827.106 81.576C826.842 80.696 826.446 80.102 825.918 79.794C825.39 79.486 824.73 79.332 823.938 79.332H821.76V89.628H814.236ZM821.694 73.854H825.72C828.316 73.854 829.614 72.732 829.614 70.488C829.614 68.244 828.316 67.122 825.72 67.122H821.694V73.854Z" fill="#100F0D"/>
</svg>
