<svg xmlns="http://www.w3.org/2000/svg" width="228" height="200" fill="none"><circle cx="112.34" cy="100.225" r="86.066" fill="#fff"/><mask id="a" width="173" height="173" x="26" y="14" maskUnits="userSpaceOnUse" style="mask-type:alpha"><circle cx="112.34" cy="100.225" r="86.066" fill="#A3A4A6"/></mask><g fill="#1EBFBF" mask="url(#a)"><path d="M299.362 158.026c-.382-1.515-2.007-.13-2.819-.39-1.529-.562-1.051-1.817-2.197-2.553-.287-.173-2.437-1.342-1.625.303.478.952 1.243 2.034 1.481 2.986.191.865-.525 1.558-.143 2.38 1.529 3.332 2.771-.26 3.583-1.255.43-.563 1.959-.39 1.72-1.471Zm-6.354 4.76c-2.293-.649-8.646 3.894-4.49 5.063 2.436.692 2.102-.519 3.248-2.077.382-.52 3.057-2.597 1.242-2.986Zm-28.233-34.663c-.43-.692-1.481-1.039-1.91-1.688-.287-.432.095-1.341-.048-1.471-.335-.389-1.147-.433-1.29-.563.239.303-1.433-1.428-1.147-1.298-1.624-.865-6.974-2.942-8.837-2.207-4.491 1.774-1.911-.433-5.207-1.644-.478-.173-2.819-.909-2.723.173.048.303 1.815 1.255 2.197 1.644.191.173 1.29 1.255 1.29 1.299.143.129.191.519.669.778.43.26 1.481.174 2.006.303.86.26 2.771.909 3.201 1.558.334.476-.43 1.298-.526 1.255.144.13.717.563.908.736-.287-.26 4.061 1.255 3.822 1.341 1.576-.086 1.481-1.601 3.248-1.255.812.174 1.481 1.472 2.532 1.861 2.102.822 2.771.779 1.815-.822Zm-29.14-22.33c-.43-.259-3.01-1.038-1.624.174.86.562 3.2 5.063 3.248 1.99.048-.865-.812-1.644-1.624-2.164Zm-2.197 5.064c1.05 1.125 4.633 3.808 5.828 1.471 2.102-4.068-5.733-3.376-5.828-1.471Zm4.968 6.145c-.144-.433-5.112.822-5.207 1.081-.812 1.904-1.816 3.289-1.242 5.366 1.289 4.328.859-.389 1.672-.605.716-.174 1.815 2.38 2.77.908.478-.735-.955-1.904-1.337-2.553-.191-.433.812-.736.525-1.082-.048-.043-.907-.562-.86-.432-.095-.26-1.576.476-1.098-.693.43-.952 5.684.952 4.777-1.99Zm-5.542-16.445c-.525-.086-1.337.044-1.481.563-.382 1.385-.716 5.452 1.577 3.202-.191.173.525-2.38.573-2.207-.095-.649.86-1.298-.669-1.558Zm-1.815-6.275c-.908.606-.955 3.073.669 3.116 1.481 0 .525-4.068-.669-3.115ZM59.121 121.026c-2.675-.649-5.828-1.039-8.36-2.034-2.007-.822-2.245-1.644-3.344-3.375-2.341-3.549-7.978-5.28-12.086-6.794-2.58-.952-3.344-.303-5.924-.173-2.054.129-3.678-1.082-5.876-.909-2.532.173-3.2 1.99-5.541 2.466-1.768.347-4.538.087-5.733-1.038-2.102-1.947.621-3.808-.573-5.496-1.003-1.385-3.63.13-4.777-1.255-1.003-1.212 1.29-3.981-.478-4.847-1.91-.952-3.248 1.428-4.204 1.99-2.34 1.429-4.777.39-6.306-1.557-.955-1.212-1.624-2.77-1.672-4.284-.095-1.731 1.577-2.38 3.01-3.592 1.194-.952 1.624-1.168 2.006-1.125.478.043.908.52 2.58.303 1.529-.173 1.003-.692 2.866-.909 1.242-.13 5.016.173 6.115.952 1.147.822 1.385 4.674 3.057 3.332 1.29-1.081-.286-3.635-.573-4.89-.62-2.813-.143-2.596 2.58-4.024 2.102-1.082 2.197-1.212 2.675-3.289.669-3.072.43-2.856 2.723-4.544 1.337-.995 1.146-2.337 2.293-3.375.287-.217 2.866-1.169 3.344-1.039 1.576.433-.143.606.478 1.342.19.216-.335 1.428.525 1.6.86.174 1.863-1.557 2.389-1.903 1.242-.736 4.3-.346 3.87-2.207-.383-1.645-3.393.432-4.54-.606-5.063-4.587 20.4-4.198 4.11-11.598-2.676-1.211-2.915-1.47-4.348-3.98-.191-.304-1.29-2.684-1.576-2.727-1.72-.433-.191.39-1.242.952-1.53.822-2.915 2.553-4.348.087-.812-1.429-.238-1.818-.334-2.25-.048-.304-.382-.607-1.768-1.299-2.245-1.168-3.2-1.645-5.445-1.341-3.153.432-3.153.649-2.485 2.596.478 1.298.908 1.385 1.051 2.467.096.605-.668.865-.43 1.817.144.563 1.242 1.342 1.72 1.99.143.174.24.39.24.563-.049 1.039-1.195 1.125-1.72 1.948-1.052 1.687-.287.735-.67 2.856-.143.822.621 1.298-.525 1.471-2.197.346-2.818-2.856-3.44-3.765-.668-.995-1.337-1.471-2.245-1.774-.86-.346-1.91-.52-3.248-.866-.239-.086-.812-.13-1.529-.216-1.48-.173-3.487-.39-3.774-.563-.907-.605-.286-1.341-.812-2.163 0-.044-.048-.044-.048-.087-.095-.13-.19-.216-.334-.26-.43-.172-.908.174-1.147-.346-.286-.519-.43-.995-.477-1.428-.191-1.341.573-2.337 2.054-3.115.143-.087 2.15-.736 2.15-.65.095-.13.573-1.168.43-1.081.334-.303 2.818-2.943 3.439-2.727.908.346 0 2.9 2.484 2.553 2.914-.389.478-2.336.669-3.375.239-1.428 1.959-2.077 2.15-3.419 0 .044-.574-2.726-.478-2.64-.86-.995-3.917-1.168-4.49-.605-.43.433 1.48 2.813-.813 3.419-2.006.519-.43-1.255-1.767-2.207-.812-.563-1.242.476-1.29.476-.382-.217-.812-.39-1.433-.866-.717-.563-1.338-2.337-2.198-3.678-.907-1.515-2.006-2.51-3.63-.909-1.433 1.428.239 2.596 1.528 3.678 1.242 1.082 2.102 2.078-.525 3.246a7.456 7.456 0 0 1-.908.26c-2.197.346-6.306-.13-7.977-.433-3.392-.693-7.214.13-10.988 0 .096 0-1.624-1.645-2.054-1.904-1.29-.693-3.726-.822-5.111-1.125-4.825-1.082-8.36-1.558-13.138-.174-7.404 2.12-14.713-.389-22.404-1.255-3.918-.432-7.405.347-10.94 1.515-.907.303-3.057.433-2.723 1.774.24.952 2.532 1.039 3.105 1.645 2.246 2.38-1.385 1.082-.955 2.986.239 1.125 2.532.779 2.77 2.034.43 2.51-5.923 2.077-4.442 5.02.525 1.038 5.924 3.591 7.166 3.85 2.006.434 4.108-.215 5.876-.735 2.484-.735 5.54-2.337 8.216-2.25 2.198.043 5.207 1.558 7.357 2.164 4.825 1.428 5.732 5.669 9.554 8.438 2.484 1.774 7.022 2.467 9.077 4.63 1.29 1.385.62 2.943.43 4.934-.191 1.947-.908 4.24 0 5.972.86 1.644 2.58 3.288 4.203 4.846A69.16 69.16 0 0 1-28.73 84.2c1.385 1.557 8.503 10.212 9.506 9.736 1.194-.606-2.34-3.721.526-2.25 1.576.822 3.439 4.544 4.49 5.929 1.672 2.207 3.392 3.202 5.494 3.938 1.528.519 3.248.908 5.302 1.514 1.863.563 2.771.866 4.347 1.861.813.519 1.53 1.212 2.437 1.471 1.05.303 2.484-.389 3.487 0 1.433.563 2.245 2.77 3.678 3.722 2.007 1.341 3.965 1.341 6.115 1.861 7.691 1.904-1.433 6.75-1.72 9.347-.477 4.111 4.013 8.525 6.593 11.641 1.337 1.644 2.818 2.077 4.443 3.418 1.91 1.558 1.624 2.467 1.433 4.544-.765 7.79-2.58 16.185-2.198 24.017.191 3.636 1.768 8.006 3.058 11.511.62 1.645 2.15 3.938 4.538 3.159 2.962-.995 0-4.413.047-6.361.048-2.856 1.96-8.871 4.061-10.948 1.577-1.558 4.252-2.121 5.876-3.592 1.624-1.471 1.529-2.856 3.583-3.895 1.242-.606 1.91-.389 2.77-1.558.526-.692.717-1.687 1.051-2.466.765-1.774 1.29-4.587 2.58-6.102 2.866-3.289 8.217-1.212 8.981-6.231.287-1.948-.239-4.89.812-6.621.956-1.558 3.679-1.904 4.49-3.592 2.485-5.107-3.964-6.275-7.93-7.227ZM25.68 39.713c-1.815-1.038-1.72-2.423-3.2-3.678-.43-.39-1.004-.692-1.625-.995-1.194-.563-2.532-1.039-3.535-1.645-1.768-1.038-3.153-2.856-4.873-3.894-.525-.303-1.098-.563-1.672-.693-1.863-.432-9.84-.779-10.462 1.299-.095.173-.143.39-.19.562-.717 3.073 5.97 3.635 8.12 4.241 2.676.779 5.35 1.904 6.45 4.328.573 1.255 0 2.942.62 4.197.813 1.645 2.15 2.034 3.87 2.9 1.051.519 2.389 1.514 3.63 1.99.24.087.526.173.717.216 3.01.52 2.532-.865 3.678-2.596.574-.865 2.39-2.077 2.437-3.202.143-2.51-2.293-2.077-3.965-3.03ZM-4.702 28.808c-1.767-.302-3.773 1.428-1.624 2.51 2.389 1.212 3.87-2.51 1.624-2.51Zm-8.12.736c-3.392 1.86 2.053 4.717 2.866 3.722 2.58-2.077.334-5.453-2.867-3.722Zm-.574 5.582c-.382-.995-2.054-1.341-2.723-2.077-1.05-1.168-1.146-3.202-2.866-3.851-2.34-.909-5.255 1.341-7.643.865-2.485-.519-15.048-4.543-13.138 1.299.908 2.726 4.873 1.255 6.927 1.947 2.389.822 3.822 3.462 6.115 4.154 2.484.736 4.777-1.038 7.357-.779 1.815.217 7.69 2.683 5.971-1.558Zm-8.312-10.429c-1.003-.822-6.306-1.687-7.93-2.293-1.768-.693-2.006-.866-3.678-.52-.621.13-4.873 1.732-2.341 2.683 2.436.91 5.493 2.77 8.073 3.03 1.959.173 8.456-.78 5.876-2.9Zm-1.099-4.63c-.287-2.683-6.401-.346-4.825 1.255 1.147.909 5.016.476 4.825-1.255Zm15.765 5.582c-.43-1.038-3.058-1.817-4.013-2.337-.956-.562-1.147-1.211-2.532-1.211-.955 0-3.248.476-1.72 1.817 1.194 1.082 2.245 2.294 3.726 2.857 1.433.562 5.494 1.211 4.539-1.126ZM25.394 10.46c-2.723-.692-5.589-1.212-8.36-1.688-3.153-.562-5.589.13-8.742.693-3.105.562-6.258 1.082-9.363 1.644-1.529.26-3.392.043-2.723 1.428 1.529 3.16 10.462.52 11.083 1.774.812 1.558-5.541 1.645-5.971 1.602-2.771-.347-5.064-2.12-7.548-2.77-1.29-.346-6.067.303-5.78 1.947.334 1.904 4.777 3.722 6.544 4.328 1.099.346 2.102.865 3.153.736.812-.087 3.153-2.078 3.726-1.082.812 1.384-4.204 3.98-5.016 4.068-.525.043-7.595-2.727-5.446.086.812 1.082 2.819.346 3.774 1.125.765.606 1.051 3.419 2.007 3.419H2.13c1.29 0 6.258.736 7.26 0C12.975 25.303 6 24.654 4.233 25c-1.195.26-4.204 2.034-4.873.217-.669-1.861 2.627-1.472 3.726-1.428 1.672.086 5.398 1.298 6.831.735 1.242-.476.813-1.774 1.577-2.942.573-.866 2.054-1.299 2.484-2.207.143-.303-.335-.996-.478-.953.669-.778 2.198-1.384 3.679-2.033 2.006-.91 8.503-2.943 9.888-4.371 1.195-1.385 0-1.125-1.672-1.558Zm-38.838 8.741c-1.05-1.774-7.022-1.038-5.159.78 1.147.605 6.736 1.86 5.16-.78Zm2.341.26c.717 1.039 2.102 1.082 2.436-.13.43-1.514-3.487-1.99-2.436.13Zm90.526-5.885c-.047-4.284-26.943-5.193-31.099-4.5-6.21.995-14.188.908-19.156 4.413-2.818 1.99-4.73 3.246-8.169 4.241-1.672.52-3.774.692-3.44 2.64.192 1.082 2.867 4.111 4.157 4.154 2.484.087 5.828-.346 8.169.52 2.723 1.038 5.684 4.284 7.786 6.145 4.252 3.721 3.918 10.472 5.446 15.362.526 1.688 1.672 4.327 3.822 4.89 3.487.909 3.2-4.76 4.825-6.405 1.29-1.341 2.102-.606 3.87-.952 1.815-.39 2.292-.952 3.487-2.207 2.102-2.293 4.203-2.77 7.356-3.808 4.156-1.385 8.408-7.4 7.644-11.597-.478-2.683-3.965-5.713-1.959-8.093 1.433-1.558 7.261-2.38 7.261-4.803Zm3.679 27.739c-2.246-.39-4.73-.91-6.832-.822-1.624.043-3.152.649-4.633 1.254-.717.303-.86 1.169-.191 1.602 2.15 1.47 3.726 2.51 6.688 2.51 3.965 0 4.203-.65 5.732-3.16a.96.96 0 0 0-.764-1.384ZM290.046 36.9c-3.535-1.169-6.401-2.9-9.697-1.385-3.249 1.471-6.258 1.644-10.175.995-3.679-.606-4.778-3.765-7.93-5.28-3.058-1.47-8.026-.562-11.274-.562-1.577 0-2.962-.173-4.3.476-1.863.909-2.197 2.813-4.538 3.073-1.29.13-4.347-.65-5.589-1.082-2.723-1.039-1.672-2.467-3.535-3.981-.813-.65-3.965-1.299-4.921-1.212-2.341.216-2.197 2.337-4.634 2.337-.955 0-4.299-.996-5.111-1.515-3.058-2.077.382-2.25.573-4.154.334-3.203-5.685-2.64-7.882-2.813-3.392-.26-7.739-1.298-11.083-.865-3.344.432-6.736 2.942-9.65 4.327-.955.476-2.818.995-3.583 1.73-1.289 1.256-1.146 2.338-2.914 3.376-1.003.606-3.153 1.861-4.395 1.904-1.958.087-2.914-1.298-4.872-1.168-1.29.087-3.918 1.298-4.968 1.947-.526.303-1.099.303-1.529.78-.764.821-.143 2.38-1.386 2.942-1.385.606-3.773-.866-5.207-.952-2.531-.13-2.293 1.255-4.299 2.034-2.627.995-6.067.086-8.742 1.211-3.44 1.472-6.258 5.063-9.889 6.059-1.098.303-2.627.562-3.439-.78-1.481-2.509 2.818-1.73 3.917-2.769 1.911-1.817-2.006-3.072-4.347-3.938-.335-.13-.621-.26-.908-.346-2.579-1.125-7.213-4.24-10.032-4.37-3.057-.13-7.165 3.548-9.554 4.89-1.481.822-2.723 1.514-3.869 2.38-.813.562-1.529 1.255-2.246 2.077-1.624 1.817-6.592 5.496-6.831 7.919-.096.909 1.481 3.289 2.389 3.765 2.054 1.125 2.723-.78 4.729-.52 2.484.347 2.914 6.622 6.783 2.986.669-.649 1.672-3.332 1.768-4.197.191-1.558-1.099-2.986-.526-4.457.239-.606 2.007-2.467 3.822-3.592 1.481-.952 2.914-1.385 3.535-.346.048.043.048.13.096.173.669 2.207-7.5 5.063-1.672 7.183 1.146.433 4.204-1.038 5.064.303 1.194 1.818-2.676 1.471-3.392 2.164-1.003.995-.191 2.207-1.72 3.202-1.576 1.039-4.252 1.904-6.115 2.423-2.77.78-5.828-.302-8.598.217-2.771.52-5.446 2.77-7.548 4.327-1.386.996-3.344 2.077-3.727 3.765-.43 2.077 2.293 3.722.765 5.67-1.099 1.384-2.866.302-4.443.951-1.815.736-3.105 3.852-1.72 5.626 1.72 2.25 7.214 2.25 9.077.476 1.385-1.342.287-3.722 2.006-5.236 1.051-.952 3.679-2.12 5.064-2.337 2.962-.476 3.01 1.212 4.586 2.813.573.605 3.392 3.115 4.204 3.202 4.443.433-1.911-5.366-2.102-6.578-.096-.476.191-1.904.717-2.163 1.289-.606 1.003.173 1.719.908.86.866 1.625 2.64 2.58 3.679 1.338 1.514 3.774 6.318 5.541 6.447 1.768.13 1.242-2.207 2.723-1.99 1.242.173 1.911 2.813 3.774 3.202 1.625.303 3.392-.865 5.064-.562 2.389.476 3.678 2.899 2.436 4.846-1.481 2.294-6.305 1.255-9.076.78-1.577-.26-3.917-1.04-5.494-.91-2.484.217-2.771 2.164-5.541 1.645-1.672-.303-4.491-1.341-5.924-2.25-2.054-1.255-.669-.736-1.338-2.597-.621-1.688-.191-1.298-2.293-1.428-2.101-.13-4.394.26-6.496.39-4.682.303-9.077.779-12.087 4.24-1.815 2.078-3.487 4.285-5.159 6.492-.764 1.038-2.102 2.293-2.388 3.592-.478 2.163 1.29 4.5 1.05 6.837-.382 4.154 2.532 5.669 5.829 8.438 3.057 2.553 5.016 3.203 9.028 3.159 1.481 0 2.723-.043 4.109-.476 1.433-.432 2.771-1.774 4.395-1.514 1.003.173 2.293 1.601 3.344 1.99 2.245.823 1.911-.476 2.675 1.818.478 1.514 0 3.116.621 4.63.525 1.298 1.672 2.64 2.388 3.808 2.293 3.635 1.816 4.631 1.099 8.482-.621 3.246 1.529 4.717 2.293 7.79.382 1.557-.048 3.072.765 4.587.668 1.298 2.101 2.553 3.057 3.764 2.436 2.986 3.201 4.588 7.309 4.717 4.538.13 5.637-.346 7.978-3.635.955-1.341 1.433-2.12 1.767-3.678.478-2.077.478-1.904 2.007-3.289 1.767-1.644.907-1.904 1.337-3.938.335-1.644 1.242-2.293 2.484-3.505 2.484-2.423 2.914-4.327 2.15-7.833-.287-1.255-1.29-2.163-1.624-3.332-.573-2.077.43-2.596 1.72-3.938 2.293-2.38 5.875-4.5 7.213-7.486.669-1.472 1.051-4.068-.382-5.323-1.768-1.515-4.825-.606-7.023-2.077-2.675-1.774-4.395-2.813-5.732-5.583-.382-.822-4.921-9.087-4.347-9.433.477-.26 6.258 5.842 6.879 6.62 2.102 2.64 3.2 7.747 7.595 7.747 2.484 0 7.692-1.818 9.459-3.116 2.58-1.861 3.917-6.621.048-8.482-2.341-1.125-2.054.736-4.108 1.039-2.198.303-2.915-1.601-3.918-3.29-.573-.994-2.197-2.898 0-3.201 1.338-.174 2.771 2.813 4.252 3.202 1.672.433 3.057-.346 4.729.346 2.341.909 2.293 1.472 5.112 1.472 4.538 0 6.114 1.081 9.22 4.5 2.102 2.294 3.391 5.193 4.92 7.833 1.959 3.332 3.248 5.798 5.541 1.601 1.768-3.203 3.01-4.544 6.02-6.794 1.337-.996 2.914-2.77 4.538-3.376 2.102-.822 2.341-.26 3.439 1.645 1.195 2.12.86 2.207 2.962 3.202.717.346 1.386-.216 2.198.39.621.476.955 2.336 1.098 2.942.717 2.943.574 5.366 2.676 8.006.764.952 2.006 2.856 3.344 1.515 1.003-1.039-1.195-3.549-1.863-4.414-.574-.736-3.106-2.683-.956-3.289 1.959-.563 2.389 2.899 4.108 3.159 2.914.389 6.258-5.28 4.586-7.53-.907-1.255-3.487-1.168-3.63-2.986-.191-2.683 3.344-.865 4.681-.909 2.628-.043 7.692-3.592 9.125-5.366 1.481-1.817 2.245-6.318 1.672-8.655-.43-1.817-2.054-2.683-1.577-4.63.526-2.077 2.723-2.467 4.73-1.471 1.672.779 1.958 3.202 3.582 3.591 4.013.953.383-3.159.239-4.024-.191-1.212.573-3.073 1.816-3.808 1.48-.866 3.63.173 5.111-.52 2.198-1.038 4.395-6.101 4.968-8.265.287-1.038.335-2.986-.095-3.981-.765-1.818-3.583-1.947-3.153-3.938.43-2.034 4.825-4.76 6.927-5.106 3.63-.606 6.592.649 9.745-1.169 1.146-.692 8.073-5.972 9.029-1.86.621 2.812-6.258 4.76-6.736 7.702-.382 2.467 1.242 7.27 4.252 5.41 2.675-1.645 4.872-5.107 5.398-7.876.621-3.42 3.439-3.073 6.879-4.285 1.767-.605 3.487-1.644 5.302-2.077 1.051-.26 2.437.044 3.392-.303 1.624-.605 6.497-5.02 7.118-6.534 1.481-3.332-5.828-4.37-8.408-5.236ZM144.965 76.93c-1.863.951-6.688-1.04-8.837-1.212-3.392-.26-6.975.086-4.968-3.938.812-1.645 1.242-1.99 3.248-2.337 1.529-.26 5.255-.39 5.78 1.385.621 1.817 9.029 3.938 4.777 6.102Zm10.271 4.803c-3.105 0-2.579-3.938-3.583-5.885-1.146-2.164-3.153-5.28 1.147-5.54 1.624-.13 2.771.91 3.439 2.25.191.347.335.693.43 1.083.239.735.382 1.514.43 2.207.191 1.947 1.433 5.885-1.863 5.885Zm-.43 51.54c-1.958 2.077-2.866 3.289-3.153 6.101-.191 2.207.478 6.665 4.252 4.761 2.006-.996 2.341-5.193 2.771-7.054.43-1.904-.765-7.097-3.87-3.808Zm58.854-14.324c-.191-.087-6.831-3.765-4.777-.736 1.099 1.601 8.408 10.299 9.077 4.631.239-2.034-2.437-2.813-4.3-3.895Zm5.972 5.626c-.765 2.639 5.398 4.543 7.118 2.985 3.582-3.202-5.876-5.885-7.118-2.985Zm10.653-9.391c-.287-1.298.668-3.116-.86-3.938-2.198-1.168-2.532 1.125-3.201 2.423-.669 1.342-1.051 2.078-2.532 2.9-.907.519-4.204.779-2.675 2.553 1.481 1.688 4.586 5.106 7.452 4.068 1.099-.39 2.054-3.029 2.389-3.895.764-2.12-.143-2.034-.573-4.111Zm40.318 29.989c-.716-3.721-5.254-5.106-7.977-7.833-1.242-1.255-2.15-4.024-3.679-4.846-4.108-2.207-1.863 2.553-3.965 3.635-3.439 1.774-3.63-3.852-4.299-4.847-1.768-2.553-5.159-.346-6.64.995-2.054 1.818-3.535 1.169-5.59 2.38-1.576.909-2.149 3.333-4.108 4.068-1.576.563-4.347 1.039-5.541 2.077-1.577 1.385-.478 3.289.047 5.193.526 2.034.765 4.804 1.816 6.665 1.194 2.12 2.532 1.687 4.968 1.687 2.15 0 3.344-.043 5.207-.735 2.58-.996 3.965-2.77 6.831-1.645 1.004.39 1.816 1.472 2.867 1.731.955.26 1.528-.173 2.293-.086 3.726.303 2.102 2.207 4.538 4.37 2.723 2.424 8.551.693 10.509-1.601 2.867-3.289 3.583-6.967 2.723-11.208Z"/><path d="M92.033 180.352c-17.33-3.354-15.095 0-36.338 0-13.551 1.029-26.275 3.355-41.37 0-10.832-2.407-28.51 3.914-55.904 0-27.393-3.913-19.008.56-46.96-4.471-27.952-5.031-31.306 18.448-11.18 21.244 20.125 2.795 128.02 3.912 257.16 4.471 129.139.559 136.966-13.417 126.903-17.889-10.063-4.473-46.96 2.795-66.526-3.355-19.567-6.149-47.519 8.386-72.117 0-24.598-8.385-36.338 3.355-53.668 0Z"/></g><path stroke="#1EBFBF" stroke-linecap="round" stroke-width="1.612" d="M198.406 100.225c0 47.533-38.533 86.066-86.066 86.066m34.552-164.915c-10.576-4.641-22.263-7.217-34.552-7.217-47.533 0-86.066 38.533-86.066 86.066 0 30.589 15.958 57.451 40.003 72.715"/><path stroke="#16191C" stroke-linecap="round" stroke-width="1.5" d="M178.418 163.944c11.844 3.482 21.401 2.572 26.333-2.359 29.559-26.871-97.815-115.01-153.708-131.133-29.84-8.608-36.368 5.283-31.659 21.706"/><path fill="#16191C" d="m66.4 94.61-20.172 26.013a.466.466 0 0 1-.736 0L25.324 94.61c-8.022-10.345-7.098-25.045 2.16-34.303 10.15-10.15 26.605-10.15 36.755 0 9.257 9.258 10.184 23.955 2.16 34.303Z"/><circle cx="45.89" cy="77.478" r="12.309" fill="#fff"/><path fill="#16191C" d="m151.314 153.727-20.172 26.014a.465.465 0 0 1-.735 0l-20.169-26.014c-8.022-10.345-7.097-25.044 2.161-34.302 10.149-10.15 26.604-10.15 36.754 0 9.258 9.258 10.185 23.955 2.161 34.302Z"/><circle cx="130.804" cy="136.596" r="12.309" fill="#fff"/><path fill="#16191C" d="m197.533 55.915-20.171 26.013a.466.466 0 0 1-.736 0l-20.169-26.013c-8.021-10.346-7.097-25.045 2.161-34.303 10.149-10.15 26.605-10.15 36.754 0 9.258 9.258 10.185 23.955 2.161 34.303Z"/><circle cx="177.024" cy="38.784" r="12.309" fill="#fff"/></svg>